<svg height='300px' width='300px'  fill="#000000" xmlns="http://www.w3.org/2000/svg" xmlns:xlink="http://www.w3.org/1999/xlink" version="1.1" x="0px" y="0px" viewBox="0 0 100 100" style="enable-background:new 0 0 100 100;" xml:space="preserve"><path d="M84.4,13.7h-9.6V7.3c0-1.3-1.1-2.3-2.3-2.3H27.5c-1.3,0-2.3,1.1-2.3,2.3v6.3h-9.6c-1.3,0-2.3,1.1-2.3,2.3v64.4  c0,1.3,1.1,2.3,2.3,2.3h9.6v9.9c0,1.3,1.1,2.3,2.3,2.3s2.3-1.1,2.3-2.3v-9.9h10.5v9.9c0,1.3,1.1,2.3,2.3,2.3s2.3-1.1,2.3-2.3v-9.9  h10.2v9.9c0,1.3,1.1,2.3,2.3,2.3s2.3-1.1,2.3-2.3v-9.9h10.2v9.9c0,1.3,1.1,2.3,2.3,2.3s2.3-1.1,2.3-2.3v-9.9h9.6  c1.3,0,2.3-1.1,2.3-2.3V16C86.7,14.7,85.7,13.7,84.4,13.7z M82.1,18.3V78H17.9V18.3h9.6h44.9H82.1z M70.1,13.7H29.9v-4h40.2V13.7z"></path><path d="M25.2,28.2v40.1c0,1.3,1.1,2.3,2.3,2.3h44.9c1.3,0,2.3-1.1,2.3-2.3V28.2c0-1.3-1.1-2.3-2.3-2.3H27.5  C26.2,25.8,25.2,26.9,25.2,28.2z"></path></svg>